HIERARCHY
ROOT SimulationBone
{
	OFFSET 0.000000 0.000000 0.000000
	CHANNELS 6 Xposition Yposition Zposition Zrotation Yrotation Xrotation 
	JOINT Hips
	{
		OFFSET 0.000000 0.000000 0.000000
		CHANNELS 6 Xposition Yposition Zposition Zrotation Yrotation Xrotation 
		JOINT LeftUpLeg
		{
			OFFSET 0.103456 1.857823 10.548498
			CHANNELS 3 Zrotation Yrotation Xrotation
			JOINT LeftLeg
			{
				OFFSET 43.500000 -0.000019 -0.000002
				CHANNELS 3 Zrotation Yrotation Xrotation
				JOINT LeftFoot
				{
					OFFSET 42.372204 0.000027 -0.000005
					CHANNELS 3 Zrotation Yrotation Xrotation
					JOINT LeftToe
					{
						OFFSET 17.299999 -0.000001 0.000000
						CHANNELS 3 Zrotation Yrotation Xrotation
						End Site
						{
							OFFSET 0.000000 0.000000 0.000000
						}
					}
				}
			}
		}
		JOINT RightUpLeg
		{
			OFFSET 0.103456 1.857824 -10.548502
			CHANNELS 3 Zrotation Yrotation Xrotation
			JOINT RightLeg
			{
				OFFSET 43.500038 -0.000015 0.000017
				CHANNELS 3 Zrotation Yrotation Xrotation
				JOINT RightFoot
				{
					OFFSET 42.372261 -0.000015 0.000015
					CHANNELS 3 Zrotation Yrotation Xrotation
					JOINT RightToe
					{
						OFFSET 17.299984 -0.000007 -0.000002
						CHANNELS 3 Zrotation Yrotation Xrotation
						End Site
						{
							OFFSET 0.000000 0.000000 0.000000
						}
					}
				}
			}
		}
		JOINT Spine
		{
			OFFSET 6.901968 -2.603745 -0.000005
			CHANNELS 3 Zrotation Yrotation Xrotation
			JOINT Spine1
			{
				OFFSET 12.588100 0.000014 0.000013
				CHANNELS 3 Zrotation Yrotation Xrotation
				JOINT Spine2
				{
					OFFSET 12.343204 0.000008 -0.000010
					CHANNELS 3 Zrotation Yrotation Xrotation
					JOINT Neck
					{
						OFFSET 25.832903 0.000002 0.000010
						CHANNELS 3 Zrotation Yrotation Xrotation
						JOINT Head
						{
							OFFSET 11.766598 0.000015 -0.000000
							CHANNELS 3 Zrotation Yrotation Xrotation
							End Site
							{
								OFFSET 0.000000 0.000000 0.000000
							}
						}
					}
					JOINT LeftShoulder
					{
						OFFSET 19.745903 -1.480366 6.000109
						CHANNELS 3 Zrotation Yrotation Xrotation
						JOINT LeftArm
						{
							OFFSET 11.284134 0.000001 -0.000017
							CHANNELS 3 Zrotation Yrotation Xrotation
							JOINT LeftForeArm
							{
								OFFSET 33.000042 0.000010 0.000015
								CHANNELS 3 Zrotation Yrotation Xrotation
								JOINT LeftHand
								{
									OFFSET 25.200022 0.000012 0.000000
									CHANNELS 3 Zrotation Yrotation Xrotation
									End Site
									{
										OFFSET 0.000000 0.000000 0.000000
									}
								}
							}
						}
					}
					JOINT RightShoulder
					{
						OFFSET 19.746094 -1.480373 -6.000069
						CHANNELS 3 Zrotation Yrotation Xrotation
						JOINT RightArm
						{
							OFFSET 11.284146 -0.000006 -0.000018
							CHANNELS 3 Zrotation Yrotation Xrotation
							JOINT RightForeArm
							{
								OFFSET 33.000103 0.000006 0.000016
								CHANNELS 3 Zrotation Yrotation Xrotation
								JOINT RightHand
								{
									OFFSET 25.199755 0.000126 0.000423
									CHANNELS 3 Zrotation Yrotation Xrotation
									End Site
									{
										OFFSET 0.000000 0.000000 0.000000
									}
								}
							}
						}
					}
				}
			}
		}
	}
}
MOTION
Frames: 9
Frame Time: 0.033333
-229.541594 0.000000 300.868423 0.000000 -63.485419 0.000000 -3.985672 90.582481 -1.315903 84.999251 0.066955 177.814667 153.473941 -10.576405 171.035819 -35.025657 -1.096402 2.580248 79.589134 -4.041931 -8.904697 21.454551 0.003093 0.000000 168.911015 -1.654401 -157.970364 -24.424372 -5.153912 11.666900 91.526044 -6.686406 8.136018 21.454557 -0.003102 -0.000017 6.571330 1.030037 0.985052 3.148039 2.033298 1.997599 2.829930 2.045459 1.985279 14.806373 7.398024 21.222591 -28.880184 -21.924509 33.905879 -117.764182 -82.912520 -64.447165 15.852898 68.132872 51.937066 -42.747422 -22.621904 2.033621 9.086724 -1.239171 16.012402 174.931281 83.842054 -3.552292 7.884977 -64.971649 -22.247651 -32.978653 10.014400 -0.993453 6.237796 0.376248 -12.025581 
-229.496328 0.000000 300.901616 0.000000 -62.893892 0.000000 -3.937758 90.546059 -1.150609 84.912784 0.067545 179.247734 152.362737 -10.299291 166.892025 -36.188897 -0.826232 -0.394475 80.080799 -1.713528 -8.189717 21.454553 0.003088 -0.000000 168.976517 -1.833490 -157.367572 -24.428267 -5.434005 12.583579 91.574867 -7.238529 8.628983 21.454558 -0.003101 -0.000018 6.603196 1.022490 1.087957 3.213408 2.014834 2.203769 2.895352 2.028239 2.191563 14.161000 7.400387 19.963579 -27.293989 -22.114496 32.266169 -120.987471 -83.028353 -61.191767 13.565045 68.224813 48.513447 -44.710770 -23.242353 2.133607 9.060159 -1.786631 17.232960 174.802081 83.763507 -3.684844 4.980011 -64.888348 -22.258518 -33.381662 9.731709 -0.983473 6.223422 0.250393 -12.730322 
-229.314330 0.000000 300.963784 0.000000 -62.208984 0.000000 -3.851354 90.533386 -0.942982 84.902701 0.082461 -179.485292 151.939621 -9.810705 162.324104 -36.314815 -0.317316 -3.421723 80.579375 0.931294 -6.187813 21.454551 0.003095 0.000001 169.288014 -2.066194 -156.968512 -24.214069 -5.683343 13.554251 91.519248 -7.818607 9.172358 21.454560 -0.003110 -0.000018 6.607446 1.013306 1.157551 3.222938 1.994453 2.342770 2.904926 2.008693 2.330695 13.736378 7.103791 18.659049 -24.882217 -22.195647 30.283392 -123.953167 -83.041256 -58.201920 10.795765 68.371464 43.912608 -47.367847 -23.727336 2.249729 8.829389 -2.791632 16.496471 174.889234 83.697739 -3.598679 1.723751 -64.736383 -21.099224 -33.623543 9.564663 -0.977693 6.186409 0.367565 -13.125617 
-229.000932 0.000000 301.056183 0.000000 -61.434845 0.000000 -3.731148 90.608757 -0.701050 84.915001 -0.022417 -178.272299 152.181696 -8.632513 157.784323 -35.140306 0.507281 -6.377063 80.173894 3.271198 -4.970407 21.454551 0.003094 0.000001 169.912171 -2.178495 -156.498758 -23.575142 -5.859980 14.426227 91.287411 -8.328813 9.700995 21.454560 -0.003110 -0.000016 6.567446 0.977841 1.162764 3.142246 1.924246 2.351526 2.824251 1.938536 2.339867 13.761691 6.484986 17.537139 -21.832524 -22.139131 28.242465 -126.242195 -82.951486 -55.899945 6.397324 68.351773 37.784634 -50.148663 -23.915112 2.354649 8.573792 -3.832719 13.936895 174.588692 83.625845 -3.904167 -1.349838 -64.558764 -19.180411 -33.835948 9.507303 -0.978514 6.188879 0.772277 -13.278315 
-228.561465 0.000000 301.180067 0.000000 -60.575094 0.000000 -3.564993 90.662651 -0.464842 84.929461 0.016370 -177.195132 153.048133 -7.364899 153.654859 -32.896790 1.345901 -8.060686 78.911744 4.771641 -3.457151 21.454551 0.003090 0.000000 170.628712 -2.331404 -155.856229 -22.956075 -5.997959 15.117386 90.987388 -8.698442 10.322690 21.454560 -0.003110 -0.000017 6.478763 0.964006 1.137195 2.964129 1.899070 2.298567 2.646137 1.913047 2.287058 14.271887 5.702487 16.692689 -18.510217 -21.947723 26.376828 -127.886345 -82.848678 -54.247941 0.052937 67.953866 30.312649 -52.537859 -23.970153 2.441218 8.441145 -4.548470 11.691651 174.281511 83.541895 -4.216698 -3.830830 -64.299961 -17.205578 -34.190793 9.545393 -0.988760 6.195801 1.377232 -13.282161 
-228.001259 0.000000 301.336691 0.000000 -59.633001 0.000000 -3.384083 90.736473 -0.260698 84.921541 0.043173 -176.399938 154.114667 -5.996205 150.527151 -30.348976 2.076849 -8.537552 78.568875 5.679240 -1.103050 21.454553 0.003092 -0.000000 171.381044 -2.403895 -155.290471 -22.366510 -6.105500 15.664265 90.600335 -8.953838 11.030390 21.454560 -0.003114 -0.000018 6.358009 0.938015 1.097799 2.721422 1.850461 2.217181 2.403413 1.863939 2.205978 15.130085 4.899684 16.105885 -15.393860 -21.680419 24.839487 -129.180611 -82.783382 -52.946076 -7.474142 67.100987 22.150433 -54.409130 -24.034990 2.512798 8.325817 -5.067567 11.510949 174.005148 83.469160 -4.497887 -5.609345 -63.922907 -15.648062 -34.838118 9.705069 -1.013618 6.114867 1.956715 -13.246791 
-227.325645 0.000000 301.527310 0.000000 -58.611643 0.000000 -3.232614 90.782227 -0.141047 84.926268 0.012978 -176.038295 155.268778 -4.723790 149.928581 -28.222326 2.552429 -7.825613 78.930820 5.542036 0.412670 21.454551 0.003092 -0.000000 171.994176 -2.268104 -154.949234 -22.212262 -6.198419 16.066343 90.295470 -9.102848 11.842061 21.454560 -0.003111 -0.000017 6.248095 0.889655 1.055703 2.499980 1.756787 2.130174 2.181962 1.769752 2.119536 16.100206 4.152047 15.705277 -12.870558 -21.473884 23.701170 -130.452802 -82.730666 -51.665139 -14.965148 65.770904 14.224923 -55.833900 -24.050551 2.566237 8.014937 -5.794316 12.867900 173.551692 83.405544 -4.957769 -6.807327 -63.442800 -14.420645 -35.842258 9.986368 -1.054974 5.909216 2.402634 -13.253100 
-226.539955 0.000000 301.753178 0.000000 -57.514042 0.000000 -3.116872 90.751099 -0.128869 85.006101 -0.061737 -176.129921 155.943765 -3.324002 152.796304 -27.344765 2.564230 -8.860576 79.855464 6.134647 -0.070148 21.454555 0.003092 -0.000000 172.347844 -1.807595 -154.772046 -22.921855 -6.289049 16.227764 90.159487 -9.073472 12.812704 21.454562 -0.003104 -0.000016 6.193609 0.819525 1.009715 2.388985 1.618521 2.035909 2.070968 1.630921 2.026101 16.983740 3.465968 15.400902 -11.140699 -21.397985 22.919106 -131.966959 -82.702758 -50.138400 -21.347334 64.016809 7.521550 -56.890398 -23.971515 2.600152 7.487102 -6.884807 14.194676 173.135037 83.305167 -5.381674 -7.640834 -62.932496 -13.123689 -37.161693 10.310682 -1.107395 5.599587 2.839963 -13.260932 
-225.649520 0.000000 302.015551 0.000000 -56.343293 0.000000 -3.057478 90.725357 -0.233102 85.144027 -0.329850 -176.575596 156.295547 -1.959890 157.771154 -27.441265 1.570287 -11.374633 80.218297 7.754001 -0.637142 21.454555 0.003091 0.000000 172.452687 -0.896605 -154.778780 -24.371616 -6.341376 16.306431 89.934419 -8.952443 13.966352 21.454558 -0.003103 -0.000018 6.210676 0.704160 0.943015 2.420184 1.388902 1.900319 2.102180 1.400488 1.891903 17.680414 2.792587 15.116559 -10.159842 -21.339067 22.348908 -133.487482 -82.796250 -48.598288 -25.890406 62.149257 2.770824 -57.785019 -23.864715 2.626520 6.887313 -7.957218 14.942002 172.820397 83.183153 -5.703191 -8.181654 -62.514734 -11.596041 -38.730284 10.614598 -1.165901 5.177680 3.398306 -13.244963 
